PathFileType	4	(X/Y/Z)	C:\Users\WrightLab\Desktop\Jo\P1.2Trial6.trc
DataRate	CameraRate	NumFrames	NumMarkers	Units	OrigDataRate	OrigDataStartFrame	OrigNumFrames
100.00	100.00	       21	19	mm	100.00	407	       542
Frame#	Time	Headset_Front			Headset_Back			Headset_Left			Headset_Right			Left_Shoulder			Right_Shoulder			Sternum			C7			Left Elbow			Right Elbow			Left Wrist			Right Wrist			Left ASIS			Right ASIS			S2			Left Knee			Right Knee			Left Ankle			Right Ankle			
		X1	Y1	Z1	X2	Y2	Z2	X3	Y3	Z3	X4	Y4	Z4	X5	Y5	Z5	X6	Y6	Z6	X7	Y7	Z7	X8	Y8	Z8	X9	Y9	Z9	X10	Y10	Z10	X11	Y11	Z11	X12	Y12	Z12	X13	Y13	Z13	X14	Y14	Z14	X15	Y15	Z15	X16	Y16	Z16	X17	Y17	Z17	X18	Y18	Z18	X19	Y19	Z19	

407	4.060	-173.66428	1435.30603	2037.36194	76.24875	1337.35950	1818.51208	30.53626	1482.97119	2024.91577				183.95398	1275.36035	2032.50232				-55.10663	1205.77686	2004.91760										252.64293	831.57916	2247.91968	-274.36597	795.56958	1663.75024	72.94324	897.87427	2059.37695	-162.26663	888.15436	1912.74304	115.16475	942.73230	1743.14563	143.14371	456.16391	1995.77722	-170.16449	491.35098	1984.47864	284.85452	158.25305	1834.14380	-222.68321	202.47415	2093.64697	
408	4.070	-180.55281	1434.87988	2043.04541	70.59423	1335.12744	1825.66211	24.09897	1481.21582	2032.51624				178.01590	1273.10840	2040.37061				-61.32289	1203.67993	2011.62903										243.95302	831.39240	2258.94971	-276.71713	794.52393	1664.23718	67.50091	896.91479	2067.22681	-167.40811	885.90625	1921.85474	108.92515	939.94086	1752.08008	140.77417	454.84348	2002.17224	-176.07204	492.51248	1995.66711	284.71106	159.41138	1835.29956	-228.75717	201.73146	2102.73608	
409	4.080	-187.46567	1434.79675	2047.43494	64.90369	1332.73462	1833.12622	18.06737	1479.42517	2039.27039				171.47624	1271.85242	2048.62524				-67.65279	1202.55176	2019.49585										234.64159	830.12970	2268.71362	-279.02484	791.52319	1669.33765	61.84343	895.20959	2075.67285	-173.10530	883.97772	1930.50354	102.46937	937.15424	1761.31055	139.07320	453.23178	2007.52295	-182.71382	492.77637	2006.87219	283.85260	161.03499	1837.21729	-233.80061	199.68602	2111.29126	
410	4.090	-194.68288	1435.09082	2052.34351	57.74623	1330.11011	1840.07666	10.97986	1477.55713	2045.36829				164.74973	1269.28638	2054.36255				-74.43314	1201.14868	2027.52112										225.42828	829.04529	2279.04980	-281.30280	788.30499	1674.76465	56.07632	894.48810	2083.36743	-178.90996	881.40088	1938.48462	96.16653	934.03027	1770.15186	137.01031	451.96399	2014.18079	-189.09099	492.47598	2017.06763	283.11807	160.93085	1837.91345	-238.02193	194.95418	2118.64771	
411	4.100	-201.74738	1435.35962	2057.42603	51.14861	1327.97864	1845.77563	4.48769	1476.55774	2053.31812				157.93602	1267.74670	2061.93506				-81.39440	1199.47791	2034.41370										215.77861	829.38184	2289.24097	-284.74133	785.25787	1679.12451	50.06792	893.62885	2091.60669	-184.93076	879.16199	1947.30591	89.37072	931.17999	1779.92188	134.58746	450.84354	2021.38806	-196.08398	493.28046	2029.57117	282.21082	162.82364	1839.66260	-241.33420	188.46918	2125.65894	
412	4.110	-208.95695	1436.45398	2061.86133	44.07105	1325.55493	1852.91235	-2.21951	1474.37292	2058.25488				150.61948	1266.08484	2068.80029				-88.53110	1198.01575	2041.56030										206.57191	828.39941	2297.43188	-288.13010	782.06134	1685.93933	43.57903	892.84106	2100.15723	-191.04973	877.23010	1956.74756	82.69361	928.62500	1787.99951	131.52081	450.40726	2029.30603	-203.71654	493.30020	2042.12195	281.48218	164.56047	1841.51038	-244.03674	180.37306	2130.45557	
413	4.120	-216.36322	1437.89465	2066.39355	37.27065	1323.06116	1861.10510	-8.89144	1473.44580	2065.13281				143.24203	1264.99072	2075.60278				-96.42548	1196.88696	2049.42310										197.46623	827.50549	2305.60156	-291.97556	778.96722	1691.44775	37.44115	891.69904	2107.74365	-197.54391	875.20197	1966.89343	75.53047	926.62445	1795.45935	128.82774	449.19186	2036.61584	-210.79973	491.89236	2053.53540	280.43903	167.23575	1845.98364	-247.65543	173.51944	2135.21338	
414	4.130	-223.86084	1440.03882	2070.97021	28.91073	1321.27368	1866.15369	-15.95655	1472.12891	2070.94385				135.55177	1263.18127	2081.66113				-104.54644	1195.87109	2055.97778										188.41388	827.09277	2313.60327	-296.56903	776.20093	1697.41309	30.83625	891.49243	2116.83765	-204.59366	873.34290	1976.38293	68.86365	923.46930	1804.79211	124.74134	448.77933	2045.94214	-219.32368	491.23090	2064.80103	279.69379	169.87447	1848.63940	-251.35982	169.12930	2140.28467	
415	4.140	-231.14772	1442.50659	2074.68188	20.99667	1319.42969	1873.63074	-22.95145	1470.82019	2076.94751				128.34892	1262.82080	2089.11450	-215.47635	1259.75256	1839.03589	-112.88006	1195.26013	2063.65381										178.87314	825.61224	2320.17725	-301.77637	773.16760	1703.88721	23.84099	891.86169	2126.30835	-211.35481	871.87378	1984.19775	61.64522	921.71271	1813.45801	120.36329	449.21350	2055.04956	-226.12096	487.85315	2074.45142	277.51840	172.83270	1853.28467	-258.03082	168.43936	2144.82178	
416	4.150	-239.14969	1445.73645	2079.38257	13.75017	1318.38806	1880.06970	-30.19887	1470.88293	2083.40723				119.83604	1262.98926	2095.07568	-223.26003	1258.62329	1844.90991	-121.03635	1195.22107	2071.40894										169.97244	824.69745	2325.95605	-306.74573	770.14392	1711.30298	17.18911	891.94800	2135.21289	-218.62933	871.26300	1995.50635	54.58686	919.77594	1822.89966	116.07753	448.79675	2064.76782	-233.59572	484.61484	2085.15381	276.49899	176.19215	1858.75232	-264.39145	169.05727	2149.57471	
417	4.160	-246.84940	1449.33618	2082.83130	4.92736	1317.65942	1885.11353	-38.19588	1471.31152	2089.49878				112.25899	1262.67114	2101.86060	-230.89626	1256.77039	1850.79590	-129.71948	1195.36926	2078.70264										160.88982	824.32526	2332.78271	-312.48114	767.35046	1720.45532	9.72354	892.28839	2144.79468	-225.85463	869.70135	2004.00049	47.39514	917.66180	1831.27527	111.46146	448.10532	2074.45508	-241.55399	480.65411	2093.81836	274.34723	179.36781	1863.15820	-270.71970	167.86362	2154.63794	
418	4.170	-255.01831	1453.69788	2086.96899	-3.64363	1318.00928	1892.73706	-45.86492	1472.12842	2095.45093				104.42163	1263.63892	2108.43457	-239.37920	1256.54651	1858.53088	-138.32353	1195.93140	2085.68311										151.94958	824.54596	2338.44336	-318.36047	765.48889	1728.14709	2.08651	893.29456	2153.90674	-233.32140	869.29840	2013.95605	39.73656	917.41449	1842.72095	106.29996	448.57635	2083.89868	-248.56740	477.91690	2102.51953	272.40714	183.29909	1868.73181	-275.59988	164.01785	2159.92114	
419	4.180	-263.02850	1458.55444	2090.85278	-11.33021	1318.41235	1900.24243	-53.55702	1473.71240	2102.26050				96.00077	1264.05591	2114.70215	-248.51450	1257.35852	1867.43823	-146.74881	1196.86719	2093.06909										143.30020	824.07361	2343.02393	-323.96466	763.08875	1735.15308	-5.86407	895.69763	2164.37402				32.34084	916.99054	1850.90820	100.32431	449.37836	2095.19678	-256.22375	475.93106	2109.11719	269.44293	189.18898	1877.27722	-279.74890	159.91428	2165.62280	
420	4.190	-270.94046	1463.34558	2093.92065	-19.63437	1319.07434	1906.82434	-61.48897	1474.75232	2108.49902				88.15830	1266.10071	2122.79028				-154.79305	1198.25708	2100.48657										134.84937	823.20215	2346.55933	-330.03458	762.15320	1743.38586	-14.41633	897.63843	2173.36206				24.48775	917.89191	1860.71533	94.29682	450.06012	2106.03516	-265.14249	477.88620	2117.72290	267.28415	192.81198	1883.56970	-282.56079	156.84811	2168.70801	
421	4.200	-279.42569	1468.32019	2098.05200	-27.88675	1320.65894	1913.91980	-69.72169	1475.98511	2114.09351				79.66193	1267.38940	2128.67993				-162.88853	1199.71155	2107.30005										126.35001	822.12970	2349.49341	-336.54956	761.11487	1751.56226	-22.88796	899.97552	2182.18677				16.99241	918.85870	1868.84802	87.92072	451.24969	2117.07178	-273.35938	480.23907	2124.89355	262.43085	198.81572	1894.85437	-285.64340	154.67404	2169.12817	
422	4.210	-287.29233	1473.09009	2101.23657	-34.98757	1322.08972	1919.26599	-77.77937	1478.03027	2120.00586				71.71312	1269.83228	2135.81958				-170.83328	1201.86743	2113.53491										117.67106	821.55426	2352.78418	-343.26797	760.99036	1760.67700	-31.67402	902.47021	2190.10498				9.48701	920.76111	1877.08459	80.12686	453.35614	2129.99634	-281.96024	482.39178	2131.45068	256.87714	203.30164	1906.47546	-287.67023	153.04547	2171.26172	
423	4.220	-294.68393	1477.01648	2103.72778	-42.42441	1323.52795	1926.07214	-85.40463	1479.87610	2125.78638				63.75908	1272.89954	2143.23267				-178.23257	1204.82092	2120.72217										109.57562	821.09259	2354.57642	-349.78345	761.03052	1770.35986	-41.50076	905.80463	2199.41577				2.67815	922.39618	1887.23401	71.08619	455.81628	2144.06543	-290.57492	484.87601	2137.00195	251.15067	207.94640	1920.32275				
424	4.230	-301.76016	1481.11511	2105.61157	-48.66589	1325.50427	1930.60388	-92.95574	1482.11133	2131.59961				56.56116	1275.34583	2149.15234	-285.27835	1257.30518	1900.68127	-185.30223	1207.76282	2126.56396										101.88600	819.77594	2355.79980	-357.17947	761.16718	1782.00891	-50.82555	908.54663	2207.23926				-4.31590	924.88660	1894.89221	61.09378	457.68524	2158.39233	-298.38647	487.26215	2142.58545	243.79903	212.19827	1933.14111	-291.30093	150.87926	2172.92163	
425	4.240	-309.37048	1484.58997	2109.25635	-54.38858	1326.58801	1936.95190	-100.60782	1484.06873	2136.74438				49.49200	1278.58521	2156.37598				-192.13237	1210.61011	2132.23389										94.11440	819.15967	2357.97363	-364.54144	762.24762	1792.15601	-59.89337	910.62518	2214.21802				-10.64413	926.36847	1904.40405	50.48826	459.60556	2173.02466	-306.28888	490.28152	2147.82935	235.75865	216.30164	1946.46899	-292.19955	151.12003	2169.91016	
426	4.250	-316.06247	1487.25403	2111.57446	-60.78981	1328.35229	1942.00098	-108.36330	1486.41699	2141.79907				42.74504	1281.44800	2162.75049	-297.28564	1260.61658	1911.97083	-198.12839	1213.56519	2138.03027										86.43728	819.09100	2359.88501	-373.25479	763.35883	1804.22620	-70.10938	914.00562	2222.67993				-16.89553	927.90326	1913.81226	39.92050	462.40250	2188.87744	-314.04285	491.95108	2151.99585	226.97968	220.94876	1962.28088	-296.37946	152.50290	2178.36523	
427	4.260				-66.47895	1329.32214	1947.02075	-115.08165	1488.52759	2147.01050				36.20461	1283.94409	2168.29614	-303.42151	1262.92102	1917.00732	-204.79102	1216.77771	2143.93066										79.26549	818.84882	2361.37988	-381.90399	765.19525	1815.52747	-79.08121	916.39905	2229.81030				-22.90740	929.45306	1921.83313	29.98867	464.00226	2206.04810	-320.13565	493.11661	2155.56030	217.80634	225.63132	1979.11279	-297.57547	152.28076	2179.41284	
